<svg width="435" height="143" viewBox="0 0 435 143" fill="none" xmlns="http://www.w3.org/2000/svg">
<path d="M72.576 52.144V69.68H48.768V142H26.88V69.68H3.072V52.144H72.576Z" fill="#FF004F"/>
<path d="M126.176 141L112.48 121.16L100.96 141H77.28L100.832 104.52L76.64 69.576H101.216L114.912 89.288L126.432 69.576H150.112L126.176 105.544L150.752 141H126.176ZM191.698 142.024C184.701 142.024 178.386 140.531 172.754 137.544C167.207 134.557 162.813 130.291 159.57 124.744C156.413 119.197 154.834 112.712 154.834 105.288C154.834 97.9493 156.455 91.5067 159.698 85.96C162.941 80.328 167.378 76.0187 173.01 73.032C178.642 70.0453 184.957 68.552 191.954 68.552C198.951 68.552 205.266 70.0453 210.898 73.032C216.53 76.0187 220.967 80.328 224.21 85.96C227.453 91.5067 229.074 97.9493 229.074 105.288C229.074 112.627 227.41 119.112 224.082 124.744C220.839 130.291 216.359 134.557 210.642 137.544C205.01 140.531 198.695 142.024 191.698 142.024ZM191.698 123.08C195.879 123.08 199.421 121.544 202.322 118.472C205.309 115.4 206.802 111.005 206.802 105.288C206.802 99.5707 205.351 95.176 202.45 92.104C199.634 89.032 196.135 87.496 191.954 87.496C187.687 87.496 184.146 89.032 181.33 92.104C178.514 95.0907 177.106 99.4853 177.106 105.288C177.106 111.005 178.471 115.4 181.202 118.472C184.018 121.544 187.517 123.08 191.698 123.08ZM261.166 122.952H292.142V141H236.718V123.592L266.414 87.624H236.974V69.576H291.502V86.984L261.166 122.952ZM314.426 142.024C310.586 142.024 307.429 140.915 304.954 138.696C302.565 136.392 301.37 133.576 301.37 130.248C301.37 126.835 302.565 123.976 304.954 121.672C307.429 119.368 310.586 118.216 314.426 118.216C318.181 118.216 321.253 119.368 323.642 121.672C326.117 123.976 327.354 126.835 327.354 130.248C327.354 133.576 326.117 136.392 323.642 138.696C321.253 140.915 318.181 142.024 314.426 142.024Z" fill="#FF004F"/>
</svg>
